<svg xmlns="http://www.w3.org/2000/svg" xmlns:xlink="http://www.w3.org/1999/xlink" width="450" height="450" version="1.1" viewBox="0 0 450 450" style="shape-rendering:geometricPrecision;text-rendering:geometricPrecision;image-rendering:optimizeQuality;fill-rule:evenodd;clip-rule:evenodd"><g><path style="opacity:.008" fill="#d9e0f1" d="M 200.5,92.5 C 203.304,91.3622 206.304,91.1955 209.5,92C 206.518,92.498 203.518,92.6646 200.5,92.5 Z"/></g><g><path style="opacity:.008" fill="#d9e0f1" d="M 192.5,93.5 C 193.946,92.3871 195.613,92.2204 197.5,93C 195.866,93.4935 194.199,93.6602 192.5,93.5 Z"/></g><g><path style="opacity:.01" fill="#dae0f2" d="M 212.5,93.5 C 213.946,92.3871 215.613,92.2204 217.5,93C 215.866,93.4935 214.199,93.6602 212.5,93.5 Z"/></g><g><path style="opacity:.008" fill="#d9e1f1" d="M 188.5,94.5 C 189.251,93.4265 190.251,93.2599 191.5,94C 190.552,94.4828 189.552,94.6495 188.5,94.5 Z"/></g><g><path style="opacity:.995" fill="#d9e0f1" d="M 227.5,97.5 C 228.78,98.9313 230.447,99.5979 232.5,99.5C 233.899,100.89 235.566,101.89 237.5,102.5C 244.464,107.797 250.798,113.797 256.5,120.5C 256.75,122.674 257.75,124.341 259.5,125.5C 259.328,126.492 259.662,127.158 260.5,127.5C 260.328,128.492 260.662,129.158 261.5,129.5C 261.402,131.553 262.069,133.22 263.5,134.5C 263.41,137.152 264.076,139.485 265.5,141.5C 265.205,143.735 265.539,145.735 266.5,147.5C 265.99,150.388 266.656,152.721 268.5,154.5C 272.212,157.211 275.212,160.544 277.5,164.5C 277.5,165.167 277.833,165.5 278.5,165.5C 283.444,171.832 281.944,175.832 274,177.5C 273.333,180.5 273.333,183.5 274,186.5C 276.333,187.833 278.667,189.167 281,190.5C 281.384,192.197 281.218,193.863 280.5,195.5C 276.5,195.5 272.5,195.5 268.5,195.5C 266.167,195.5 263.833,195.5 261.5,195.5C 261.667,182.496 261.5,169.496 261,156.5C 251.296,126.559 230.796,113.726 199.5,118C 179.039,124.127 166.539,137.627 162,158.5C 161.5,170.829 161.333,183.162 161.5,195.5C 153.493,195.334 145.493,195.5 137.5,196C 136.667,196.833 135.833,197.667 135,198.5C 134.5,216.83 134.333,235.164 134.5,253.5C 133.21,252.942 132.377,251.942 132,250.5C 131.218,247.69 130.384,245.023 129.5,242.5C 128.863,238.422 127.53,234.589 125.5,231C 121.829,230.1 118.163,229.266 114.5,228.5C 116.667,227.802 118.5,226.469 120,224.5C 120.409,220.698 121.243,217.031 122.5,213.5C 124.687,211.718 125.02,209.552 123.5,207C 119.171,206.914 114.837,207.248 110.5,208C 108.722,210.135 108.055,212.635 108.5,215.5C 108.854,219.453 108.854,223.453 108.5,227.5C 104.475,227.184 100.475,227.017 96.5,227C 92.8926,230.098 89.8926,233.598 87.5,237.5C 84.7758,240.221 82.4425,243.221 80.5,246.5C 82.4031,249.911 84.9031,252.911 88,255.5C 87.4219,258.548 87.5886,261.548 88.5,264.5C 87.6851,265.429 86.8518,266.429 86,267.5C 85.8333,270.667 85.6667,273.833 85.5,277C 86.3077,291.156 86.6411,305.322 86.5,319.5C 69.5946,320.13 52.9279,319.463 36.5,317.5C 36.6716,316.508 36.3382,315.842 35.5,315.5C 35.3404,313.847 34.6737,312.514 33.5,311.5C 32.5376,307.605 31.2043,303.939 29.5,300.5C 29.7678,298.901 29.4345,297.568 28.5,296.5C 27.1942,284.836 27.1942,273.17 28.5,261.5C 29.4345,260.432 29.7678,259.099 29.5,257.5C 30.404,256.791 30.7373,255.791 30.5,254.5C 31.404,253.791 31.7373,252.791 31.5,251.5C 33.2927,249.574 34.2927,247.241 34.5,244.5C 35.3382,244.158 35.6716,243.492 35.5,242.5C 38.4997,238.813 41.1664,234.813 43.5,230.5C 42.1207,227.741 40.7874,225.075 39.5,222.5C 39.405,220.214 38.7384,218.214 37.5,216.5C 37.7678,214.901 37.4345,213.568 36.5,212.5C 36.7947,210.265 36.4614,208.265 35.5,206.5C 35.5572,200.149 35.8905,193.815 36.5,187.5C 38.2782,182.175 40.2782,176.842 42.5,171.5C 50.8087,156.856 62.8087,146.523 78.5,140.5C 81.4824,140.037 84.4824,139.704 87.5,139.5C 87.3379,141.527 87.5045,143.527 88,145.5C 90,146.833 92,148.167 94,149.5C 94.6667,151.5 94.6667,153.5 94,155.5C 92.5362,156.459 91.7028,157.792 91.5,159.5C 93.0225,163.564 95.6891,166.564 99.5,168.5C 102.372,166.2 105.372,166.033 108.5,168C 108.977,170.899 109.977,173.566 111.5,176C 115.072,177.405 118.739,177.738 122.5,177C 123.833,175 125.167,173 126.5,171C 128.167,170.333 129.833,170.333 131.5,171C 132.459,172.464 133.792,173.297 135.5,173.5C 138.527,172.639 141.194,171.139 143.5,169C 144.804,168.196 145.471,167.029 145.5,165.5C 144.56,162.868 144.393,160.202 145,157.5C 147.667,156.167 150.333,154.833 153,153.5C 153.718,149.823 154.051,146.157 154,142.5C 152.829,141.107 151.329,140.273 149.5,140C 146.76,137.021 146.927,134.188 150,131.5C 150.494,129.866 150.66,128.199 150.5,126.5C 151.338,126.158 151.672,125.492 151.5,124.5C 159.045,112.288 169.378,103.288 182.5,97.5C 184.786,97.405 186.786,96.7384 188.5,95.5C 201.69,92.489 214.69,93.1557 227.5,97.5 Z"/></g><g><path style="opacity:.012" fill="#d9e0f2" d="M 218.5,94.5 C 219.251,93.4265 220.251,93.2599 221.5,94C 220.552,94.4828 219.552,94.6495 218.5,94.5 Z"/></g><g><path style="opacity:.008" fill="#d9e0f0" d="M 188.5,94.5 C 188.5,94.8333 188.5,95.1667 188.5,95.5C 184.5,95.1667 184.5,94.8333 188.5,94.5 Z"/></g><g><path style="opacity:.008" fill="#d9e0f1" d="M 222.5,95.5 C 222.897,94.475 223.563,94.3083 224.5,95C 223.906,95.4643 223.239,95.631 222.5,95.5 Z"/></g><g><path style="opacity:.008" fill="#d9e1f1" d="M 182.5,96.5 C 182.897,95.475 183.563,95.3083 184.5,96C 183.906,96.4643 183.239,96.631 182.5,96.5 Z"/></g><g><path style="opacity:.004" fill="#d9e0f1" d="M 227.5,96.5 C 226.761,96.631 226.094,96.4643 225.5,96C 226.437,95.3083 227.103,95.475 227.5,96.5 Z"/></g><g><path style="opacity:.008" fill="#d9e0f0" d="M 182.5,96.5 C 182.5,96.8333 182.5,97.1667 182.5,97.5C 179.833,97.1667 179.833,96.8333 182.5,96.5 Z"/></g><g><path style="opacity:.01" fill="#d9e0f0" d="M 227.5,97.5 C 227.5,97.1667 227.5,96.8333 227.5,96.5C 230.167,96.8333 230.167,97.1667 227.5,97.5 Z"/></g><g><path style="opacity:.012" fill="#d9e1f1" d="M 178.5,97.5 C 179.833,98.1667 179.833,98.1667 178.5,97.5 Z"/></g><g><path style="opacity:.012" fill="#d9e1f0" d="M 230.5,97.5 C 231.833,98.1667 231.833,98.1667 230.5,97.5 Z"/></g><g><path style="opacity:.004" fill="#404f92" d="M 153.5,98.5 C 154.833,99.1667 154.833,99.1667 153.5,98.5 Z"/></g><g><path style="opacity:.004" fill="#404e92" d="M 157.5,98.5 C 158.833,99.1667 158.833,99.1667 157.5,98.5 Z"/></g><g><path style="opacity:.012" fill="#d9e1f1" d="M 176.5,98.5 C 177.833,99.1667 177.833,99.1667 176.5,98.5 Z"/></g><g><path style="opacity:.012" fill="#d8e0f1" d="M 232.5,98.5 C 233.833,99.1667 233.833,99.1667 232.5,98.5 Z"/></g><g><path style="opacity:.012" fill="#d8e0f0" d="M 174.5,99.5 C 175.833,100.167 175.833,100.167 174.5,99.5 Z"/></g><g><path style="opacity:.004" fill="#3f4e91" d="M 255.5,99.5 C 256.833,100.167 256.833,100.167 255.5,99.5 Z"/></g><g><path style="opacity:.004" fill="#404f92" d="M 260.5,99.5 C 261.833,100.167 261.833,100.167 260.5,99.5 Z"/></g><g><path style="opacity:.277" fill="#404e91" d="M 155.5,103.5 C 154.005,103.585 153.005,102.919 152.5,101.5C 154.396,100.361 155.396,101.027 155.5,103.5 Z"/></g><g><path style="opacity:.252" fill="#3f4e91" d="M 159.5,102.5 C 156.833,103.5 156.833,104.5 159.5,105.5C 159.5,106.833 158.833,107.5 157.5,107.5C 157.068,106.29 156.401,105.29 155.5,104.5C 155.5,104.167 155.5,103.833 155.5,103.5C 156.265,102.34 157.265,101.34 158.5,100.5C 159.298,100.957 159.631,101.624 159.5,102.5 Z"/></g><g><path style="opacity:.004" fill="#404f92" d="M 259.5,101.5 C 258.833,100.167 258.833,100.167 259.5,101.5 Z"/></g><g><path style="opacity:.004" fill="#404f92" d="M 150.5,101.5 C 151.833,102.167 151.833,102.167 150.5,101.5 Z"/></g><g><path style="opacity:.004" fill="#3f4e91" d="M 160.5,101.5 C 161.833,102.167 161.833,102.167 160.5,101.5 Z"/></g><g><path style="opacity:.016" fill="#d9e1f1" d="M 237.5,101.5 C 238.833,102.167 238.833,102.167 237.5,101.5 Z"/></g><g><path style="opacity:.31" fill="#3f4e91" d="M 259.5,101.5 C 260.833,101.5 261.5,102.167 261.5,103.5C 258.833,104.5 258.833,105.5 261.5,106.5C 261.631,107.239 261.464,107.906 261,108.5C 259.35,105.894 257.85,105.894 256.5,108.5C 255.761,108.631 255.094,108.464 254.5,108C 255.167,106.667 256.167,105.667 257.5,105C 254.85,101.793 255.016,101.293 258,103.5C 258.717,102.956 259.217,102.289 259.5,101.5 Z"/></g><g><path style="opacity:.006" fill="#404f92" d="M 262.5,103.5 C 262.369,102.761 262.536,102.094 263,101.5C 263.692,102.437 263.525,103.103 262.5,103.5 Z"/></g><g><path style="opacity:.008" fill="#3f4f91" d="M 159.5,102.5 C 159.833,102.5 160.167,102.5 160.5,102.5C 160.315,103.17 159.981,103.17 159.5,102.5 Z"/></g><g><path style="opacity:.008" fill="#d9e1f1" d="M 239.5,102.5 C 240.833,103.167 240.833,103.167 239.5,102.5 Z"/></g><g><path style="opacity:.004" fill="#3f4f92" d="M 253.5,102.5 C 254.833,103.167 254.833,103.167 253.5,102.5 Z"/></g><g><path style="opacity:.008" fill="#404f91" d="M 261.5,103.5 C 261.833,103.5 262.167,103.5 262.5,103.5C 262.315,104.17 261.981,104.17 261.5,103.5 Z"/></g><g><path style="opacity:.284" fill="#404f92" d="M 155.5,104.5 C 155.443,105.609 155.11,106.609 154.5,107.5C 151.985,106.14 152.318,105.14 155.5,104.5 Z"/></g><g><path style="opacity:.008" fill="#404f92" d="M 160.5,105.5 C 159.833,104.167 159.833,104.167 160.5,105.5 Z"/></g><g><path style="opacity:.004" fill="#404f92" d="M 150.5,105.5 C 151.833,106.167 151.833,106.167 150.5,105.5 Z"/></g><g><path style="opacity:.004" fill="#404f92" d="M 160.5,105.5 C 161.833,106.167 161.833,106.167 160.5,105.5 Z"/></g><g><path style="opacity:.004" fill="#3f4f92" d="M 262.5,106.5 C 261.833,105.167 261.833,105.167 262.5,106.5 Z"/></g><g><path style="opacity:.012" fill="#404e92" d="M 262.5,106.5 C 263.833,107.167 263.833,107.167 262.5,106.5 Z"/></g><g><path style="opacity:.005" fill="#92a7d8" d="M 119.5,108.5 C 120.251,107.427 121.251,107.26 122.5,108C 121.552,108.483 120.552,108.649 119.5,108.5 Z"/></g><g><path style="opacity:.008" fill="#3f4e91" d="M 154.5,107.5 C 155.833,108.167 155.833,108.167 154.5,107.5 Z"/></g><g><path style="opacity:.008" fill="#404f92" d="M 157.5,107.5 C 157.5,107.833 157.5,108.167 157.5,108.5C 156.83,108.019 156.83,107.685 157.5,107.5 Z"/></g><g><path style="opacity:.008" fill="#92a8d8" d="M 119.5,108.5 C 119.5,108.833 119.5,109.167 119.5,109.5C 118.83,109.019 118.83,108.685 119.5,108.5 Z"/></g><g><path style="opacity:.008" fill="#92a7d7" d="M 123.5,109.5 C 125.288,108.378 127.288,108.211 129.5,109C 127.527,109.495 125.527,109.662 123.5,109.5 Z"/></g><g><path style="opacity:.004" fill="#404f92" d="M 154.5,108.5 C 153.833,109.167 153.833,109.167 154.5,108.5 Z"/></g><g><path style="opacity:.004" fill="#404f92" d="M 157.5,108.5 C 158.833,109.167 158.833,109.167 157.5,108.5 Z"/></g><g><path style="opacity:.004" fill="#404e92" d="M 256.5,108.5 C 257.833,109.167 257.833,109.167 256.5,108.5 Z"/></g><g><path style="opacity:.004" fill="#404f92" d="M 258.5,108.5 C 259.833,109.167 259.833,109.167 258.5,108.5 Z"/></g><g><path style="opacity:.989" fill="#93a8d8" d="M 119.5,109.5 C 120.833,109.5 122.167,109.5 123.5,109.5C 125.631,110.314 127.964,110.814 130.5,111C 131.768,113.627 133.101,116.127 134.5,118.5C 136.5,121.167 138.5,121.167 140.5,118.5C 142.308,118.491 143.975,118.991 145.5,120C 146.328,121.992 147.661,123.492 149.5,124.5C 149.328,125.492 149.662,126.158 150.5,126.5C 150.66,128.199 150.494,129.866 150,131.5C 146.927,134.188 146.76,137.021 149.5,140C 151.329,140.273 152.829,141.107 154,142.5C 154.051,146.157 153.718,149.823 153,153.5C 150.333,154.833 147.667,156.167 145,157.5C 144.393,160.202 144.56,162.868 145.5,165.5C 145.471,167.029 144.804,168.196 143.5,169C 141.194,171.139 138.527,172.639 135.5,173.5C 133.792,173.297 132.459,172.464 131.5,171C 129.833,170.333 128.167,170.333 126.5,171C 125.167,173 123.833,175 122.5,177C 118.739,177.738 115.072,177.405 111.5,176C 109.977,173.566 108.977,170.899 108.5,168C 105.372,166.033 102.372,166.2 99.5,168.5C 95.6891,166.564 93.0225,163.564 91.5,159.5C 91.7028,157.792 92.5362,156.459 94,155.5C 94.6667,153.5 94.6667,151.5 94,149.5C 92,148.167 90,146.833 88,145.5C 87.5045,143.527 87.3379,141.527 87.5,139.5C 87.1043,136.956 87.771,134.789 89.5,133C 92.2342,132.79 94.7342,131.956 97,130.5C 97.9411,128.011 97.4411,126.011 95.5,124.5C 95.3433,123.127 95.51,121.793 96,120.5C 99.0228,118.302 101.856,115.969 104.5,113.5C 106.514,113.392 108.18,114.058 109.5,115.5C 111.5,118.167 113.5,118.167 115.5,115.5C 116.404,114.791 116.737,113.791 116.5,112.5C 117.833,111.833 118.833,110.833 119.5,109.5 Z M 125.5,131.5 C 122.813,131.336 120.146,131.503 117.5,132C 120.036,132.186 122.369,132.686 124.5,133.5C 123.833,133.5 123.5,133.833 123.5,134.5C 121.139,136.194 119.139,138.194 117.5,140.5C 115.901,140.768 114.568,140.434 113.5,139.5C 117.5,139.167 117.5,138.833 113.5,138.5C 112.833,137.833 112.167,137.167 111.5,136.5C 112.167,136.5 112.5,136.167 112.5,135.5C 113.167,135.5 113.5,135.167 113.5,134.5C 116.332,133.729 116.665,133.062 114.5,132.5C 116.29,131.003 118.456,130.336 121,130.5C 122.707,130.508 124.207,130.842 125.5,131.5 Z M 125.5,131.5 C 126.609,131.557 127.609,131.89 128.5,132.5C 128.158,133.338 127.492,133.672 126.5,133.5C 126.167,132.833 125.833,132.167 125.5,131.5 Z M 113.5,133.5 C 113.5,133.833 113.5,134.167 113.5,134.5C 112.833,134.5 112.5,134.833 112.5,135.5C 111.833,135.5 111.5,135.833 111.5,136.5C 111.167,136.5 110.833,136.5 110.5,136.5C 110.5,134.5 111.5,133.5 113.5,133.5 Z M 124.5,133.5 C 125.167,133.5 125.833,133.5 126.5,133.5C 126.027,134.906 125.027,135.573 123.5,135.5C 123.5,135.167 123.5,134.833 123.5,134.5C 124.167,134.5 124.5,134.167 124.5,133.5 Z M 109.5,137.5 C 110.568,138.434 111.901,138.768 113.5,138.5C 113.5,138.833 113.5,139.167 113.5,139.5C 111.833,139.5 110.167,139.5 108.5,139.5C 108.328,138.508 108.662,137.842 109.5,137.5 Z"/></g><g><path style="opacity:.004" fill="#93a7d7" d="M 104.5,112.5 C 104.897,111.475 105.563,111.308 106.5,112C 105.906,112.464 105.239,112.631 104.5,112.5 Z"/></g><g><path style="opacity:.012" fill="#92a8d8" d="M 116.5,112.5 C 115.833,111.167 115.833,111.167 116.5,112.5 Z"/></g><g><path style="opacity:.012" fill="#91a8d7" d="M 104.5,112.5 C 104.5,112.833 104.5,113.167 104.5,113.5C 103.83,113.019 103.83,112.685 104.5,112.5 Z"/></g><g><path style="opacity:.008" fill="#92a8d8" d="M 101.5,113.5 C 102.833,114.167 102.833,114.167 101.5,113.5 Z"/></g><g><path style="opacity:.012" fill="#92a7d7" d="M 115.5,115.5 C 112.999,115.489 112.832,114.822 115,113.5C 115.464,114.094 115.631,114.761 115.5,115.5 Z"/></g><g><path style="opacity:.008" fill="#92a8d8" d="M 109.5,115.5 C 109.897,114.475 110.563,114.308 111.5,115C 110.906,115.464 110.239,115.631 109.5,115.5 Z"/></g><g><path style="opacity:.008" fill="#d8e1f1" d="M 155.5,115.5 C 156.833,116.167 156.833,116.167 155.5,115.5 Z"/></g><g><path style="opacity:.008" fill="#92a8d8" d="M 97.5,116.5 C 98.8333,117.167 98.8333,117.167 97.5,116.5 Z"/></g><g><path style="opacity:.008" fill="#92a8d8" d="M 140.5,117.5 C 141.251,116.427 142.251,116.26 143.5,117C 142.552,117.483 141.552,117.649 140.5,117.5 Z"/></g><g><path style="opacity:.024" fill="#92a8d8" d="M 134.5,117.5 C 135.833,118.167 135.833,118.167 134.5,117.5 Z"/></g><g><path style="opacity:.012" fill="#92a8d8" d="M 140.5,117.5 C 140.5,117.833 140.5,118.167 140.5,118.5C 139.83,118.019 139.83,117.685 140.5,117.5 Z"/></g><g><path style="opacity:.008" fill="#92a8d8" d="M 144.5,117.5 C 145.833,118.167 145.833,118.167 144.5,117.5 Z"/></g><g><path style="opacity:1" fill="#86a0d1" d="M 261.5,195.5 C 256.833,195.5 252.167,195.5 247.5,195.5C 247.667,183.162 247.5,170.829 247,158.5C 238.779,137.639 223.612,129.139 201.5,133C 188.599,137.568 180.099,146.401 176,159.5C 175.5,171.495 175.333,183.495 175.5,195.5C 170.833,195.5 166.167,195.5 161.5,195.5C 161.333,183.162 161.5,170.829 162,158.5C 166.539,137.627 179.039,124.127 199.5,118C 230.796,113.726 251.296,126.559 261,156.5C 261.5,169.496 261.667,182.496 261.5,195.5 Z"/></g><g><path style="opacity:.012" fill="#d9e1f1" d="M 256.5,119.5 C 257.833,120.167 257.833,120.167 256.5,119.5 Z"/></g><g><path style="opacity:.007" fill="#93a7d7" d="M 94.5,124.5 C 93.4265,123.749 93.2599,122.749 94,121.5C 94.4828,122.448 94.6495,123.448 94.5,124.5 Z"/></g><g><path style="opacity:.008" fill="#cbd4ec" d="M 151.5,124.5 C 150.833,124.5 150.167,124.5 149.5,124.5C 150.548,122.067 151.214,122.067 151.5,124.5 Z"/></g><g><path style="opacity:.012" fill="#92a8d8" d="M 94.5,124.5 C 94.8333,124.5 95.1667,124.5 95.5,124.5C 95.3147,125.17 94.9813,125.17 94.5,124.5 Z"/></g><g><path style="opacity:.012" fill="#d9e1f1" d="M 259.5,124.5 C 260.833,125.167 260.833,125.167 259.5,124.5 Z"/></g><g><path style="opacity:.014" fill="#93a8d7" d="M 95.5,129.5 C 95.3505,128.448 95.5172,127.448 96,126.5C 96.7401,127.749 96.5735,128.749 95.5,129.5 Z"/></g><g><path style="opacity:.012" fill="#d9e1f1" d="M 260.5,126.5 C 261.833,127.167 261.833,127.167 260.5,126.5 Z"/></g><g><path style="opacity:.012" fill="#d9e0f1" d="M 261.5,128.5 C 262.833,129.167 262.833,129.167 261.5,128.5 Z"/></g><g><path style="opacity:.008" fill="#92a8d8" d="M 95.5,129.5 C 94.8333,130.167 94.8333,130.167 95.5,129.5 Z"/></g><g><path style="opacity:.01" fill="#9caedb" d="M 125.5,131.5 C 125.833,132.167 126.167,132.833 126.5,133.5C 125.833,133.5 125.167,133.5 124.5,133.5C 122.369,132.686 120.036,132.186 117.5,132C 120.146,131.503 122.813,131.336 125.5,131.5 Z"/></g><g><path style="opacity:.01" fill="#d9e1f1" d="M 263.5,134.5 C 263.369,133.761 263.536,133.094 264,132.5C 264.692,133.437 264.525,134.103 263.5,134.5 Z"/></g><g><path style="opacity:1" fill="#d9e0f1" d="M 247.5,195.5 C 223.5,195.5 199.5,195.5 175.5,195.5C 175.333,183.495 175.5,171.495 176,159.5C 180.099,146.401 188.599,137.568 201.5,133C 223.612,129.139 238.779,137.639 247,158.5C 247.5,170.829 247.667,183.162 247.5,195.5 Z"/></g><g><path style="opacity:.006" fill="#93b3f7" d="M 277.5,135.5 C 280.64,134.359 283.973,134.192 287.5,135C 284.183,135.498 280.85,135.665 277.5,135.5 Z"/></g><g><path style="opacity:.01" fill="#d9e1f1" d="M 264.5,135.5 C 265.525,135.897 265.692,136.563 265,137.5C 264.536,136.906 264.369,136.239 264.5,135.5 Z"/></g><g><path style="opacity:.004" fill="#93b3f7" d="M 289.5,137.5 C 288.833,136.167 288.833,136.167 289.5,137.5 Z"/></g><g><path style="opacity:.014" fill="#c5cfe9" d="M 85.5,135.5 C 86.404,136.209 86.7373,137.209 86.5,138.5C 85.1266,138.657 83.7932,138.49 82.5,138C 84.1193,137.764 85.1193,136.931 85.5,135.5 Z"/></g><g><path style="opacity:.006" fill="#d3dbef" d="M 110.5,136.5 C 110.833,136.5 111.167,136.5 111.5,136.5C 112.167,137.167 112.833,137.833 113.5,138.5C 111.901,138.768 110.568,138.434 109.5,137.5C 110.167,137.5 110.5,137.167 110.5,136.5 Z"/></g><g><path style="opacity:.008" fill="#93b3f7" d="M 275.5,138.5 C 274.833,137.167 274.833,137.167 275.5,138.5 Z"/></g><g><path style="opacity:.008" fill="#93b3f7" d="M 289.5,137.5 C 290.833,138.167 290.833,138.167 289.5,137.5 Z"/></g><g><path style="opacity:.012" fill="#d9e0f2" d="M 79.5,139.5 C 79.8966,138.475 80.5632,138.308 81.5,139C 80.9056,139.464 80.2389,139.631 79.5,139.5 Z"/></g><g><path style="opacity:.01" fill="#dae1f1" d="M 78.5,140.5 C 77.7611,140.631 77.0944,140.464 76.5,140C 77.4368,139.308 78.1034,139.475 78.5,140.5 Z"/></g><g><path style="opacity:.012" fill="#d9e0f1" d="M 265.5,141.5 C 265.351,140.448 265.517,139.448 266,138.5C 266.74,139.749 266.573,140.749 265.5,141.5 Z"/></g><g><path style="opacity:.008" fill="#93b3f7" d="M 290.5,139.5 C 291.833,140.167 291.833,140.167 290.5,139.5 Z"/></g><g><path style="opacity:.008" fill="#d9e1f1" d="M 73.5,141.5 C 73.8966,140.475 74.5632,140.308 75.5,141C 74.9056,141.464 74.2389,141.631 73.5,141.5 Z"/></g><g><path style="opacity:.008" fill="#93b3f7" d="M 271.5,142.5 C 272.833,143.167 272.833,143.167 271.5,142.5 Z"/></g><g><path style="opacity:.004" fill="#92b2f7" d="M 293.5,144.5 C 293.167,144.5 292.833,144.5 292.5,144.5C 292.833,141.833 293.167,141.833 293.5,144.5 Z"/></g><g><path style="opacity:.008" fill="#93b3f7" d="M 270.5,144.5 C 271.525,144.897 271.692,145.563 271,146.5C 270.536,145.906 270.369,145.239 270.5,144.5 Z"/></g><g><path style="opacity:.006" fill="#92b3f8" d="M 293.5,144.5 C 294.525,144.897 294.692,145.563 294,146.5C 293.536,145.906 293.369,145.239 293.5,144.5 Z"/></g><g><path style="opacity:.01" fill="#d9e0f1" d="M 266.5,147.5 C 266.34,145.801 266.506,144.134 267,142.5C 267.78,144.387 267.613,146.054 266.5,147.5 Z"/></g><g><path style="opacity:.008" fill="#93b3f7" d="M 272.5,147.5 C 271.833,148.167 271.833,148.167 272.5,147.5 Z"/></g><g><path style="opacity:.008" fill="#93b3f7" d="M 292.5,147.5 C 293.833,148.167 293.833,148.167 292.5,147.5 Z"/></g><g><path style="opacity:.006" fill="#93b3f7" d="M 291.5,148.5 C 291.833,148.5 292.167,148.5 292.5,148.5C 292.672,149.492 292.338,150.158 291.5,150.5C 291.5,149.833 291.5,149.167 291.5,148.5 Z"/></g><g><path style="opacity:.008" fill="#d8e0f0" d="M 58.5,149.5 C 59.8333,150.167 59.8333,150.167 58.5,149.5 Z"/></g><g><path style="opacity:1" fill="#d8e0f1" d="M 128.5,132.5 C 133.216,134.745 135.549,138.579 135.5,144C 134.975,150.052 131.975,154.385 126.5,157C 112.585,158.917 106.585,153.083 108.5,139.5C 110.167,139.5 111.833,139.5 113.5,139.5C 114.568,140.434 115.901,140.768 117.5,140.5C 117.897,141.525 118.563,141.692 119.5,141C 120.965,139.226 122.298,137.392 123.5,135.5C 125.027,135.573 126.027,134.906 126.5,133.5C 127.492,133.672 128.158,133.338 128.5,132.5 Z"/></g><g><path style="opacity:1" fill="#7682b3" d="M 118.5,144.5 C 123.197,145.874 123.531,147.874 119.5,150.5C 116.025,148.916 115.692,146.916 118.5,144.5 Z"/></g><g><path style="opacity:.008" fill="#d9e1f1" d="M 268.5,153.5 C 267.402,152.399 267.235,151.066 268,149.5C 268.49,150.793 268.657,152.127 268.5,153.5 Z"/></g><g><path style="opacity:.008" fill="#93b3f7" d="M 272.5,149.5 C 273.833,150.167 273.833,150.167 272.5,149.5 Z"/></g><g><path style="opacity:.012" fill="#93b3f7" d="M 290.5,150.5 C 290.833,150.5 291.167,150.5 291.5,150.5C 291.315,151.17 290.981,151.17 290.5,150.5 Z"/></g><g><path style="opacity:.004" fill="#3f4e91" d="M 324.5,150.5 C 325.833,151.167 325.833,151.167 324.5,150.5 Z"/></g><g><path style="opacity:.34" fill="#91b2f7" d="M 288.5,137.5 C 288.427,139.027 289.094,140.027 290.5,140.5C 290.66,142.153 291.326,143.486 292.5,144.5C 292.167,145.833 291.833,147.167 291.5,148.5C 290.662,148.842 290.328,149.508 290.5,150.5C 289.662,150.842 289.328,151.508 289.5,152.5C 284.809,155.11 280.142,155.11 275.5,152.5C 275.25,150.326 274.25,148.659 272.5,147.5C 273.213,144.406 274.213,141.406 275.5,138.5C 279.621,136.256 283.954,135.923 288.5,137.5 Z"/></g><g><path style="opacity:.975" fill="#c3d2f1" d="M 277.5,138.5 C 284.533,136.564 288.866,139.064 290.5,146C 288.186,152.06 283.853,153.893 277.5,151.5C 276.62,149.571 275.62,147.737 274.5,146C 275.651,143.535 276.651,141.035 277.5,138.5 Z"/></g><g><path style="opacity:.004" fill="#92a7d8" d="M 297.5,152.5 C 299.628,151.371 301.961,151.204 304.5,152C 302.19,152.497 299.857,152.663 297.5,152.5 Z"/></g><g><path style="opacity:.514" fill="#3f4e91" d="M 324.5,151.5 C 325.942,152.82 326.608,154.486 326.5,156.5C 325.833,156.5 325.5,156.833 325.5,157.5C 320.841,157.985 319.508,156.152 321.5,152C 322.448,151.517 323.448,151.351 324.5,151.5 Z M 322.5,153.5 C 323.289,153.783 323.956,154.283 324.5,155C 323.184,155.528 322.517,155.028 322.5,153.5 Z"/></g><g><path style="opacity:.012" fill="#93b3f7" d="M 275.5,152.5 C 274.833,153.167 274.833,153.167 275.5,152.5 Z"/></g><g><path style="opacity:.012" fill="#93b3f7" d="M 289.5,152.5 C 290.833,153.167 290.833,153.167 289.5,152.5 Z"/></g><g><path style="opacity:.008" fill="#404e91" d="M 318.5,152.5 C 319.525,152.897 319.692,153.563 319,154.5C 318.536,153.906 318.369,153.239 318.5,152.5 Z"/></g><g><path style="opacity:.012" fill="#d9e1f1" d="M 268.5,153.5 C 269.833,154.167 269.833,154.167 268.5,153.5 Z"/></g><g><path style="opacity:.968" fill="#93a8d8" d="M 309.5,159.5 C 310.097,160.139 310.93,160.472 312,160.5C 313.939,160.046 315.772,159.379 317.5,158.5C 319.808,160.471 322.142,162.471 324.5,164.5C 324.613,167.049 323.946,169.382 322.5,171.5C 322.942,172.739 323.609,173.739 324.5,174.5C 326.028,175.309 327.694,175.976 329.5,176.5C 329.5,180.167 329.5,183.833 329.5,187.5C 328.833,187.5 328.5,187.833 328.5,188.5C 322.539,189.423 321.205,192.423 324.5,197.5C 322.706,199.797 320.706,201.963 318.5,204C 315.5,203.667 312.5,203.333 309.5,203C 308.056,204.763 307.056,206.763 306.5,209C 303.167,209.667 299.833,209.667 296.5,209C 296.22,204.551 293.887,202.385 289.5,202.5C 288.6,197.611 285.6,195.277 280.5,195.5C 281.218,193.863 281.384,192.197 281,190.5C 278.667,189.167 276.333,187.833 274,186.5C 273.333,183.5 273.333,180.5 274,177.5C 281.944,175.832 283.444,171.832 278.5,165.5C 278.5,165.167 278.5,164.833 278.5,164.5C 279.167,164.5 279.5,164.167 279.5,163.5C 281.505,161.666 283.672,159.999 286,158.5C 286.671,159.252 287.504,159.586 288.5,159.5C 290.167,160.833 291.833,160.833 293.5,159.5C 295.909,153.61 300.242,151.943 306.5,154.5C 307.696,156.145 308.696,157.811 309.5,159.5 Z M 299.5,171.5 C 299.735,170.903 300.235,170.57 301,170.5C 303.03,170.954 304.863,171.62 306.5,172.5C 305.508,172.328 304.842,172.662 304.5,173.5C 302.833,172.833 301.167,172.167 299.5,171.5 Z M 311.5,177.5 C 312.404,178.209 312.737,179.209 312.5,180.5C 311.5,180.167 310.833,179.5 310.5,178.5C 311.167,178.5 311.5,178.167 311.5,177.5 Z"/></g><g><path style="opacity:.008" fill="#404f91" d="M 327.5,156.5 C 327.351,155.448 327.517,154.448 328,153.5C 328.74,154.749 328.573,155.749 327.5,156.5 Z"/></g><g><path style="opacity:.004" fill="#92a8d8" d="M 293.5,154.5 C 294.833,155.167 294.833,155.167 293.5,154.5 Z"/></g><g><path style="opacity:.012" fill="#93b3f8" d="M 277.5,156.5 C 280.64,155.359 283.973,155.192 287.5,156C 284.183,156.498 280.85,156.665 277.5,156.5 Z"/></g><g><path style="opacity:.012" fill="#404e92" d="M 318.5,155.5 C 319.833,156.167 319.833,156.167 318.5,155.5 Z"/></g><g><path style="opacity:.012" fill="#92a7d7" d="M 293.5,159.5 C 291.354,159.304 291.188,158.304 293,156.5C 293.483,157.448 293.649,158.448 293.5,159.5 Z"/></g><g><path style="opacity:.01" fill="#93a7d7" d="M 309.5,159.5 C 309.351,158.448 309.517,157.448 310,156.5C 310.772,157.849 311.939,158.682 313.5,159C 312.207,159.49 310.873,159.657 309.5,159.5 Z"/></g><g><path style="opacity:.008" fill="#404f91" d="M 326.5,156.5 C 326.833,156.5 327.167,156.5 327.5,156.5C 327.315,157.17 326.981,157.17 326.5,156.5 Z"/></g><g><path style="opacity:.012" fill="#92a8d8" d="M 288.5,158.5 C 287.833,157.167 287.833,157.167 288.5,158.5 Z"/></g><g><path style="opacity:.008" fill="#91a7d7" d="M 317.5,157.5 C 318.833,158.167 318.833,158.167 317.5,157.5 Z"/></g><g><path style="opacity:.008" fill="#3f4e91" d="M 325.5,157.5 C 325.833,157.5 326.167,157.5 326.5,157.5C 326.315,158.17 325.981,158.17 325.5,157.5 Z"/></g><g><path style="opacity:.006" fill="#92a8d7" d="M 288.5,159.5 C 288.5,159.167 288.5,158.833 288.5,158.5C 291.167,158.833 291.167,159.167 288.5,159.5 Z"/></g><g><path style="opacity:.012" fill="#404f92" d="M 321.5,158.5 C 322.833,159.167 322.833,159.167 321.5,158.5 Z"/></g><g><path style="opacity:.006" fill="#3f4e91" d="M 325.5,158.5 C 325.103,159.525 324.437,159.692 323.5,159C 324.094,158.536 324.761,158.369 325.5,158.5 Z"/></g><g><path style="opacity:.012" fill="#b6c4e4" d="M 279.5,163.5 C 278.833,163.5 278.5,163.833 278.5,164.5C 278.167,164.5 277.833,164.5 277.5,164.5C 277.711,162.576 278.377,162.243 279.5,163.5 Z"/></g><g><path style="opacity:.004" fill="#92a8d8" d="M 324.5,163.5 C 325.833,164.167 325.833,164.167 324.5,163.5 Z"/></g><g><path style="opacity:.008" fill="#d9e0f1" d="M 44.5,164.5 C 45.8333,165.167 45.8333,165.167 44.5,164.5 Z"/></g><g><path style="opacity:.012" fill="#93a8d7" d="M 325.5,165.5 C 326.573,166.251 326.74,167.251 326,168.5C 325.517,167.552 325.351,166.552 325.5,165.5 Z"/></g><g><path style="opacity:1" fill="#6e7aae" d="M 216.5,163.5 C 223.718,165.287 224.218,168.287 218,172.5C 216.315,170.983 214.815,169.316 213.5,167.5C 214.524,166.148 215.524,164.815 216.5,163.5 Z"/></g><g><path style="opacity:1" fill="#dbe1f2" d="M 217.5,164.5 C 221.184,166.203 221.351,168.203 218,170.5C 214.898,168.663 214.731,166.663 217.5,164.5 Z"/></g><g><path style="opacity:.008" fill="#92a8d8" d="M 324.5,169.5 C 325.833,170.167 325.833,170.167 324.5,169.5 Z"/></g><g><path style="opacity:.004" fill="#d9e0f1" d="M 42.5,171.5 C 42.1667,171.5 41.8333,171.5 41.5,171.5C 41.8333,168.833 42.1667,168.833 42.5,171.5 Z"/></g><g><path style="opacity:.012" fill="#d9e1f0" d="M 41.5,171.5 C 40.8333,172.167 40.8333,172.167 41.5,171.5 Z"/></g><g><path style="opacity:.012" fill="#92a8d7" d="M 324.5,174.5 C 324.696,172.354 325.696,172.188 327.5,174C 326.552,174.483 325.552,174.649 324.5,174.5 Z"/></g><g><path style="opacity:.016" fill="#b2c0e3" d="M 304.5,173.5 C 304.842,172.662 305.508,172.328 306.5,172.5C 306.842,173.338 307.508,173.672 308.5,173.5C 308.5,174.167 308.833,174.5 309.5,174.5C 309.5,175.167 309.833,175.5 310.5,175.5C 310.672,176.492 310.338,177.158 309.5,177.5C 309.5,176.833 309.167,176.5 308.5,176.5C 308.5,175.833 308.167,175.5 307.5,175.5C 307.158,174.662 306.492,174.328 305.5,174.5C 305.5,173.833 305.167,173.5 304.5,173.5 Z"/></g><g><path style="opacity:.999" fill="#d9e0f1" d="M 299.5,171.5 C 301.167,172.167 302.833,172.833 304.5,173.5C 305.167,173.5 305.5,173.833 305.5,174.5C 305.842,175.338 306.508,175.672 307.5,175.5C 308.167,175.5 308.5,175.833 308.5,176.5C 309.167,176.5 309.5,176.833 309.5,177.5C 309.5,178.167 309.833,178.5 310.5,178.5C 310.833,179.5 311.5,180.167 312.5,180.5C 313.681,188.669 310.014,193.002 301.5,193.5C 292.272,192.062 288.772,186.729 291,177.5C 292.641,173.677 295.474,171.677 299.5,171.5 Z"/></g><g><path style="opacity:.004" fill="#92a8d8" d="M 329.5,175.5 C 330.833,176.167 330.833,176.167 329.5,175.5 Z"/></g><g><path style="opacity:.014" fill="#92a7d7" d="M 330.5,187.5 C 330.335,184.15 330.502,180.817 331,177.5C 331.808,181.027 331.641,184.36 330.5,187.5 Z"/></g><g><path style="opacity:.004" fill="#404f91" d="M 378.5,179.5 C 379.833,180.167 379.833,180.167 378.5,179.5 Z"/></g><g><path style="opacity:.004" fill="#404f92" d="M 384.5,179.5 C 385.833,180.167 385.833,180.167 384.5,179.5 Z"/></g><g><path style="opacity:.375" fill="#3f4e91" d="M 377.5,181.5 C 379.384,181.712 380.717,182.712 381.5,184.5C 379.219,185.262 377.886,184.262 377.5,181.5 Z"/></g><g><path style="opacity:.38" fill="#404e91" d="M 386.5,183.5 C 385.833,183.5 385.5,183.833 385.5,184.5C 381.66,184.982 381.66,183.982 385.5,181.5C 386.298,181.957 386.631,182.624 386.5,183.5 Z"/></g><g><path style="opacity:.004" fill="#404f92" d="M 375.5,182.5 C 376.833,183.167 376.833,183.167 375.5,182.5 Z"/></g><g><path style="opacity:.004" fill="#404f92" d="M 387.5,182.5 C 388.833,183.167 388.833,183.167 387.5,182.5 Z"/></g><g><path style="opacity:.008" fill="#3f4e92" d="M 386.5,183.5 C 386.833,183.5 387.167,183.5 387.5,183.5C 387.315,184.17 386.981,184.17 386.5,183.5 Z"/></g><g><path style="opacity:.008" fill="#3f4e92" d="M 385.5,184.5 C 385.833,184.5 386.167,184.5 386.5,184.5C 386.315,185.17 385.981,185.17 385.5,184.5 Z"/></g><g><path style="opacity:.012" fill="#d9e0f1" d="M 36.5,187.5 C 35.4017,186.399 35.235,185.066 36,183.5C 36.49,184.793 36.6567,186.127 36.5,187.5 Z"/></g><g><path style="opacity:.383" fill="#3f4e91" d="M 380.5,189.5 C 379.833,189.5 379.5,189.833 379.5,190.5C 377.115,189.133 377.448,187.799 380.5,186.5C 381.562,187.425 381.562,188.425 380.5,189.5 Z"/></g><g><path style="opacity:.373" fill="#404e92" d="M 386.5,188.5 C 386.5,189.833 385.833,190.5 384.5,190.5C 381.833,186.5 382.5,185.833 386.5,188.5 Z"/></g><g><path style="opacity:.008" fill="#91a8d7" d="M 329.5,187.5 C 329.833,187.5 330.167,187.5 330.5,187.5C 330.315,188.17 329.981,188.17 329.5,187.5 Z"/></g><g><path style="opacity:.008" fill="#3f4f91" d="M 387.5,188.5 C 386.833,187.167 386.833,187.167 387.5,188.5 Z"/></g><g><path style="opacity:.004" fill="#92a8d8" d="M 328.5,188.5 C 328.833,188.5 329.167,188.5 329.5,188.5C 329.315,189.17 328.981,189.17 328.5,188.5 Z"/></g><g><path style="opacity:.004" fill="#404e92" d="M 375.5,188.5 C 376.833,189.167 376.833,189.167 375.5,188.5 Z"/></g><g><path style="opacity:.004" fill="#404f92" d="M 387.5,188.5 C 388.833,189.167 388.833,189.167 387.5,188.5 Z"/></g><g><path style="opacity:.012" fill="#d9e0f1" d="M 34.5,188.5 C 35.6129,189.946 35.7796,191.613 35,193.5C 34.5065,191.866 34.3398,190.199 34.5,188.5 Z"/></g><g><path style="opacity:.01" fill="#93a7d7" d="M 328.5,189.5 C 328.103,190.525 327.437,190.692 326.5,190C 327.094,189.536 327.761,189.369 328.5,189.5 Z"/></g><g><path style="opacity:.008" fill="#404f92" d="M 380.5,189.5 C 381.833,190.167 381.833,190.167 380.5,189.5 Z"/></g><g><path style="opacity:.008" fill="#92a8d8" d="M 324.5,190.5 C 325.833,191.167 325.833,191.167 324.5,190.5 Z"/></g><g><path style="opacity:.008" fill="#404f92" d="M 379.5,190.5 C 379.833,190.5 380.167,190.5 380.5,190.5C 380.315,191.17 379.981,191.17 379.5,190.5 Z"/></g><g><path style="opacity:.008" fill="#404f92" d="M 384.5,190.5 C 384.5,190.833 384.5,191.167 384.5,191.5C 383.83,191.019 383.83,190.685 384.5,190.5 Z"/></g><g><path style="opacity:.004" fill="#404f92" d="M 379.5,191.5 C 378.833,192.167 378.833,192.167 379.5,191.5 Z"/></g><g><path style="opacity:.004" fill="#3f4f92" d="M 384.5,191.5 C 385.833,192.167 385.833,192.167 384.5,191.5 Z"/></g><g><path style="opacity:.92" fill="#dbe2f3" d="M 354.5,201.5 C 353.662,201.842 353.328,202.508 353.5,203.5C 352.833,203.5 352.5,203.833 352.5,204.5C 351.833,204.5 351.5,204.833 351.5,205.5C 349.565,206.15 347.565,206.483 345.5,206.5C 343.5,205.167 341.833,203.5 340.5,201.5C 340.218,196.45 342.552,193.45 347.5,192.5C 352.448,193.45 354.782,196.45 354.5,201.5 Z"/></g><g><path style="opacity:1" fill="#7580b2" d="M 100.5,197.5 C 99.2233,199.914 97.5566,200.081 95.5,198C 93.8921,193.109 95.5588,191.276 100.5,192.5C 101.788,194.299 101.788,195.965 100.5,197.5 Z"/></g><g><path style="opacity:1" fill="#dde3f3" d="M 100.5,197.5 C 99.1667,197.5 97.8333,197.5 96.5,197.5C 96.5,196.167 96.5,194.833 96.5,193.5C 97.8333,193.5 99.1667,193.5 100.5,193.5C 100.5,194.833 100.5,196.167 100.5,197.5 Z"/></g><g><path style="opacity:1" fill="#fab33c" d="M 161.5,195.5 C 166.167,195.5 170.833,195.5 175.5,195.5C 199.5,195.5 223.5,195.5 247.5,195.5C 252.167,195.5 256.833,195.5 261.5,195.5C 263.833,195.5 266.167,195.5 268.5,195.5C 269.122,196.627 269.955,197.627 271,198.5C 271.667,237.5 271.667,276.5 271,315.5C 270.5,316 270,316.5 269.5,317C 274.155,317.499 278.821,317.666 283.5,317.5C 235.335,318.665 187.002,318.832 138.5,318C 137.333,316.833 136.167,315.667 135,314.5C 134.5,299.17 134.333,283.837 134.5,268.5C 134.5,268.167 134.5,267.833 134.5,267.5C 137.833,267.167 141.167,266.833 144.5,266.5C 146.717,267.369 149.05,267.702 151.5,267.5C 151.5,266.5 151.5,265.5 151.5,264.5C 158.772,263.066 166.105,262.066 173.5,261.5C 173.678,264.216 174.178,266.883 175,269.5C 177.267,270.935 179.267,270.602 181,268.5C 181.175,265.843 181.008,263.176 180.5,260.5C 181.5,260.5 182.5,260.5 183.5,260.5C 182.831,264.676 184.331,266.009 188,264.5C 188.202,262.744 188.702,261.078 189.5,259.5C 190.944,261.608 191.61,263.941 191.5,266.5C 193.144,266.714 194.644,266.38 196,265.5C 196.181,262.305 196.681,259.305 197.5,256.5C 198.492,264.316 198.826,272.316 198.5,280.5C 201.833,280.5 205.167,280.5 208.5,280.5C 208.334,272.826 208.5,265.159 209,257.5C 217.511,251.964 219.511,244.631 215,235.5C 205.538,226.466 197.871,227.799 192,239.5C 191.503,242.146 191.336,244.813 191.5,247.5C 174.101,251.563 156.434,254.896 138.5,257.5C 136.833,256.5 135.5,255.167 134.5,253.5C 134.333,235.164 134.5,216.83 135,198.5C 135.833,197.667 136.667,196.833 137.5,196C 145.493,195.5 153.493,195.334 161.5,195.5 Z"/></g><g><path style="opacity:.004" fill="#d9e0f1" d="M 33.5,195.5 C 34.6378,198.304 34.8045,201.304 34,204.5C 33.502,201.518 33.3354,198.518 33.5,195.5 Z"/></g><g><path style="opacity:.01" fill="#d9e1f1" d="M 330.5,198.5 C 330.5,198.167 330.5,197.833 330.5,197.5C 333.167,197.833 333.167,198.167 330.5,198.5 Z"/></g><g><path style="opacity:1" fill="#e19226" d="M 268.5,195.5 C 272.5,195.5 276.5,195.5 280.5,195.5C 285.6,195.277 288.6,197.611 289.5,202.5C 289.667,239.502 289.5,276.502 289,313.5C 287.549,315.464 285.716,316.797 283.5,317.5C 278.821,317.666 274.155,317.499 269.5,317C 270,316.5 270.5,316 271,315.5C 271.667,276.5 271.667,237.5 271,198.5C 269.955,197.627 269.122,196.627 268.5,195.5 Z"/></g><g><path style="opacity:.012" fill="#d9e1f1" d="M 333.5,198.5 C 334.833,199.167 334.833,199.167 333.5,198.5 Z"/></g><g><path style="opacity:.004" fill="#d9e1f1" d="M 338.5,198.5 C 339.525,198.897 339.692,199.563 339,200.5C 338.536,199.906 338.369,199.239 338.5,198.5 Z"/></g><g><path style="opacity:.006" fill="#d9e0f1" d="M 355.5,201.5 C 355.343,200.127 355.51,198.793 356,197.5C 356.765,199.066 356.598,200.399 355.5,201.5 Z"/></g><g><path style="opacity:.008" fill="#d9e0f1" d="M 338.5,202.5 C 338.842,201.662 339.508,201.328 340.5,201.5C 340.672,202.492 340.338,203.158 339.5,203.5C 339.5,202.833 339.167,202.5 338.5,202.5 Z"/></g><g><path style="opacity:.008" fill="#d9e0f1" d="M 354.5,201.5 C 354.833,201.5 355.167,201.5 355.5,201.5C 355.672,202.492 355.338,203.158 354.5,203.5C 354.5,202.833 354.5,202.167 354.5,201.5 Z"/></g><g><path style="opacity:1" fill="#96aad9" d="M 67.5,201.5 C 72.4164,202.106 76.5831,204.106 80,207.5C 81.4586,217.487 77.7919,224.82 69,229.5C 59.515,224.532 56.015,216.865 58.5,206.5C 61.3727,204.446 64.3727,202.779 67.5,201.5 Z"/></g><g><path style="opacity:.01" fill="#404f92" d="M 382.5,204.5 C 383.601,203.402 384.934,203.235 386.5,204C 385.207,204.49 383.873,204.657 382.5,204.5 Z"/></g><g><path style="opacity:.947" fill="#2f3374" d="M 353.5,203.5 C 353.833,203.5 354.167,203.5 354.5,203.5C 354.586,204.496 354.252,205.329 353.5,206C 356.716,206.387 360.049,207.221 363.5,208.5C 363.5,208.833 363.5,209.167 363.5,209.5C 365.519,210.933 367.686,212.267 370,213.5C 370.961,219.568 369.128,224.568 364.5,228.5C 362.833,228.5 361.167,228.5 359.5,228.5C 359.823,224.774 359.489,221.107 358.5,217.5C 357.833,217.833 357.167,218.167 356.5,218.5C 355.996,215.658 354.329,214.325 351.5,214.5C 350.833,212.5 350.167,210.5 349.5,208.5C 350.551,207.778 351.218,206.778 351.5,205.5C 352.167,205.5 352.5,205.167 352.5,204.5C 353.167,204.5 353.5,204.167 353.5,203.5 Z"/></g><g><path style="opacity:.498" fill="#3f4e91" d="M 388.5,206.5 C 388.5,208.167 388.5,209.833 388.5,211.5C 387.833,211.5 387.5,211.833 387.5,212.5C 386.508,212.328 385.842,212.662 385.5,213.5C 384.167,212.833 382.833,212.167 381.5,211.5C 380.871,205.753 383.205,204.086 388.5,206.5 Z M 383.5,207.5 C 384.5,207.5 385.5,207.5 386.5,207.5C 386.5,208.5 386.5,209.5 386.5,210.5C 385.5,210.5 384.5,210.5 383.5,210.5C 383.5,209.5 383.5,208.5 383.5,207.5 Z"/></g><g><path style="opacity:.004" fill="#404f92" d="M 388.5,205.5 C 389.833,206.167 389.833,206.167 388.5,205.5 Z"/></g><g><path style="opacity:.016" fill="#d9e1f1" d="M 343.5,207.5 C 343.842,206.662 344.508,206.328 345.5,206.5C 345.5,207.167 345.5,207.833 345.5,208.5C 344.833,208.167 344.167,207.833 343.5,207.5 Z"/></g><g><path style="opacity:.006" fill="#404f92" d="M 379.5,206.5 C 380.525,206.897 380.692,207.563 380,208.5C 379.536,207.906 379.369,207.239 379.5,206.5 Z"/></g><g><path style="opacity:.008" fill="#c0c3dd" d="M 363.5,208.5 C 364.946,207.387 366.613,207.22 368.5,208C 366.866,208.494 365.199,208.66 363.5,208.5 Z"/></g><g><path style="opacity:.009" fill="#3f4e91" d="M 389.5,211.5 C 389.343,210.127 389.51,208.793 390,207.5C 390.765,209.066 390.598,210.399 389.5,211.5 Z"/></g><g><path style="opacity:1" fill="#2e3373" d="M 122.5,213.5 C 117.777,212.553 113.944,213.886 111,217.5C 110.583,216.244 109.75,215.577 108.5,215.5C 108.055,212.635 108.722,210.135 110.5,208C 114.837,207.248 119.171,206.914 123.5,207C 125.02,209.552 124.687,211.718 122.5,213.5 Z"/></g><g><path style="opacity:.008" fill="#d9e0f1" d="M 369.5,209.5 C 370.251,208.427 371.251,208.26 372.5,209C 371.552,209.483 370.552,209.649 369.5,209.5 Z"/></g><g><path style="opacity:.008" fill="#d9e0f1" d="M 35.5,206.5 C 35.5,208.5 35.5,210.5 35.5,212.5C 34.1667,210.5 34.1667,208.5 35.5,206.5 Z"/></g><g><path style="opacity:.012" fill="#d9e1f1" d="M 373.5,210.5 C 373.897,209.475 374.563,209.308 375.5,210C 374.906,210.464 374.239,210.631 373.5,210.5 Z"/></g><g><path style="opacity:.008" fill="#d9e0f2" d="M 378.5,211.5 C 377.761,211.631 377.094,211.464 376.5,211C 377.437,210.308 378.103,210.475 378.5,211.5 Z"/></g><g><path style="opacity:.008" fill="#9aa0c9" d="M 381.5,211.5 C 380.791,212.404 379.791,212.737 378.5,212.5C 378.5,212.167 378.5,211.833 378.5,211.5C 379.222,211.082 379.722,210.416 380,209.5C 380.278,210.416 380.778,211.082 381.5,211.5 Z"/></g><g><path style="opacity:.008" fill="#404f92" d="M 388.5,211.5 C 388.833,211.5 389.167,211.5 389.5,211.5C 389.315,212.17 388.981,212.17 388.5,211.5 Z"/></g><g><path style="opacity:.995" fill="#d9e0f1" d="M 363.5,209.5 C 368.6,210.025 373.6,211.025 378.5,212.5C 380.649,213.736 382.982,214.736 385.5,215.5C 385.842,216.338 386.508,216.672 387.5,216.5C 391.809,219.802 396.143,223.136 400.5,226.5C 400.5,227.167 400.833,227.5 401.5,227.5C 401.5,228.167 401.833,228.5 402.5,228.5C 402.5,229.167 402.833,229.5 403.5,229.5C 407.585,234.243 411.251,239.243 414.5,244.5C 414.992,246.819 415.992,248.819 417.5,250.5C 417.928,253.785 418.928,256.785 420.5,259.5C 420.216,261.415 420.549,263.081 421.5,264.5C 421.966,269.599 421.966,274.599 421.5,279.5C 419.871,278.375 418.371,277.041 417,275.5C 411.16,278.756 411.16,281.756 417,284.5C 418.643,283.685 420.143,282.685 421.5,281.5C 421.276,285.179 420.942,288.846 420.5,292.5C 419.566,293.568 419.232,294.901 419.5,296.5C 418.596,297.209 418.263,298.209 418.5,299.5C 417.662,299.842 417.328,300.508 417.5,301.5C 416.069,302.78 415.402,304.447 415.5,306.5C 414.094,306.973 413.427,307.973 413.5,309.5C 412.662,309.842 412.328,310.508 412.5,311.5C 411.094,311.973 410.427,312.973 410.5,314.5C 409.094,314.973 408.427,315.973 408.5,317.5C 407.833,317.5 407.5,317.833 407.5,318.5C 406.833,318.5 406.5,318.833 406.5,319.5C 392.833,319.5 379.167,319.5 365.5,319.5C 364.52,306.579 364.186,293.579 364.5,280.5C 363.167,280.5 361.833,280.5 360.5,280.5C 362.042,279.837 363.709,279.17 365.5,278.5C 366.028,276.664 366.694,274.997 367.5,273.5C 367.481,281.155 368.815,281.489 371.5,274.5C 374.309,270.232 377.143,265.898 380,261.5C 382.478,252.072 380.812,243.406 375,235.5C 372.049,233.924 368.883,233.257 365.5,233.5C 365.737,232.209 365.404,231.209 364.5,230.5C 364.5,229.833 364.5,229.167 364.5,228.5C 369.128,224.568 370.961,219.568 370,213.5C 367.686,212.267 365.519,210.933 363.5,209.5 Z"/></g><g><path style="opacity:.008" fill="#3f4f91" d="M 387.5,212.5 C 387.833,212.5 388.167,212.5 388.5,212.5C 388.315,213.17 387.981,213.17 387.5,212.5 Z"/></g><g><path style="opacity:1" fill="#f39677" d="M 122.5,213.5 C 121.243,217.031 120.409,220.698 120,224.5C 118.5,226.469 116.667,227.802 114.5,228.5C 114.334,232.529 112.501,233.862 109,232.5C 108.506,230.866 108.34,229.199 108.5,227.5C 108.854,223.453 108.854,219.453 108.5,215.5C 109.75,215.577 110.583,216.244 111,217.5C 113.944,213.886 117.777,212.553 122.5,213.5 Z"/></g><g><path style="opacity:.008" fill="#d9e0f1" d="M 35.5,212.5 C 35.8333,212.5 36.1667,212.5 36.5,212.5C 36.5,213.833 36.5,215.167 36.5,216.5C 35.5655,215.432 35.2322,214.099 35.5,212.5 Z"/></g><g><path style="opacity:.004" fill="#a4aacf" d="M 385.5,213.5 C 386.167,213.5 386.833,213.5 387.5,213.5C 387.5,214.167 387.5,214.833 387.5,215.5C 386.833,215.5 386.167,215.5 385.5,215.5C 385.5,214.833 385.5,214.167 385.5,213.5 Z"/></g><g><path style="opacity:.012" fill="#d9e1f1" d="M 387.5,215.5 C 388.833,216.167 388.833,216.167 387.5,215.5 Z"/></g><g><path style="opacity:.008" fill="#dae1f1" d="M 36.5,216.5 C 36.8333,216.5 37.1667,216.5 37.5,216.5C 37.1667,220.5 36.8333,220.5 36.5,216.5 Z"/></g><g><path style="opacity:.008" fill="#d9e1f1" d="M 389.5,216.5 C 390.833,217.167 390.833,217.167 389.5,216.5 Z"/></g><g><path style="opacity:1" fill="#eda08c" d="M 351.5,214.5 C 354.329,214.325 355.996,215.658 356.5,218.5C 357.167,218.167 357.833,217.833 358.5,217.5C 359.489,221.107 359.823,224.774 359.5,228.5C 361.167,228.5 362.833,228.5 364.5,228.5C 364.5,229.167 364.5,229.833 364.5,230.5C 361.167,230.5 357.833,230.5 354.5,230.5C 352.856,230.714 351.356,230.38 350,229.5C 349.713,227.109 349.213,224.776 348.5,222.5C 349.167,221.5 349.833,220.5 350.5,219.5C 349.369,218.396 348.535,218.729 348,220.5C 347.506,218.866 347.34,217.199 347.5,215.5C 349.099,215.768 350.432,215.434 351.5,214.5 Z"/></g><g><path style="opacity:.01" fill="#d9e1f1" d="M 38.5,222.5 C 37.475,222.103 37.3083,221.437 38,220.5C 38.4643,221.094 38.631,221.761 38.5,222.5 Z"/></g><g><path style="opacity:.012" fill="#d9e0f1" d="M 38.5,222.5 C 38.8333,222.5 39.1667,222.5 39.5,222.5C 39.1667,225.167 38.8333,225.167 38.5,222.5 Z"/></g><g><path style="opacity:.004" fill="#d9e0f1" d="M 400.5,226.5 C 402.268,225.493 403.601,226.159 404.5,228.5C 404.376,229.107 404.043,229.44 403.5,229.5C 402.833,229.5 402.5,229.167 402.5,228.5C 401.833,228.5 401.5,228.167 401.5,227.5C 400.833,227.5 400.5,227.167 400.5,226.5 Z"/></g><g><path style="opacity:1" fill="#ee6263" d="M 108.5,227.5 C 108.34,229.199 108.506,230.866 109,232.5C 112.501,233.862 114.334,232.529 114.5,228.5C 118.163,229.266 121.829,230.1 125.5,231C 127.53,234.589 128.863,238.422 129.5,242.5C 129.5,243.5 129.5,244.5 129.5,245.5C 127.585,245.216 125.919,245.549 124.5,246.5C 119.144,244.965 113.478,244.465 107.5,245C 102.184,247.147 98.851,250.98 97.5,256.5C 96.71,257.609 96.21,258.942 96,260.5C 92.7771,257.059 90.9438,253.059 90.5,248.5C 90.6287,246.784 90.962,245.117 91.5,243.5C 92.525,243.103 92.6917,242.437 92,241.5C 90.6288,239.959 89.1288,238.625 87.5,237.5C 89.8926,233.598 92.8926,230.098 96.5,227C 100.475,227.017 104.475,227.184 108.5,227.5 Z"/></g><g><path style="opacity:1" fill="#744d1e" d="M 197.5,256.5 C 200.557,250.516 198.557,247.516 191.5,247.5C 191.336,244.813 191.503,242.146 192,239.5C 197.871,227.799 205.538,226.466 215,235.5C 219.511,244.631 217.511,251.964 209,257.5C 208.5,265.159 208.334,272.826 208.5,280.5C 205.167,280.5 201.833,280.5 198.5,280.5C 198.826,272.316 198.492,264.316 197.5,256.5 Z"/></g><g><path style="opacity:1" fill="#34b39d" d="M 354.5,230.5 C 357.833,230.5 361.167,230.5 364.5,230.5C 365.404,231.209 365.737,232.209 365.5,233.5C 368.883,233.257 372.049,233.924 375,235.5C 380.812,243.406 382.478,252.072 380,261.5C 377.143,265.898 374.309,270.232 371.5,274.5C 370.391,274.443 369.391,274.11 368.5,273.5C 370.011,267.799 372.011,262.299 374.5,257C 374,255.5 373.5,254 373,252.5C 370.384,259.297 368.551,266.297 367.5,273.5C 366.694,274.997 366.028,276.664 365.5,278.5C 363.709,279.17 362.042,279.837 360.5,280.5C 354.137,280.593 347.804,280.26 341.5,279.5C 341.832,269.81 341.498,260.144 340.5,250.5C 335.129,253.35 329.462,254.85 323.5,255C 317.013,250.342 311.013,245.176 305.5,239.5C 306.167,238.5 306.833,237.5 307.5,236.5C 313.757,238.962 319.757,241.962 325.5,245.5C 334.811,240.295 344.478,236.295 354.5,233.5C 354.5,232.5 354.5,231.5 354.5,230.5 Z"/></g><g><path style="opacity:.012" fill="#d9e1f1" d="M 35.5,239.5 C 36.8333,240.167 36.8333,240.167 35.5,239.5 Z"/></g><g><path style="opacity:1" fill="#f28e76" d="M 87.5,237.5 C 89.1288,238.625 90.6288,239.959 92,241.5C 92.6917,242.437 92.525,243.103 91.5,243.5C 91.5654,243.062 91.3988,242.728 91,242.5C 89.5,244 88,245.5 86.5,247C 87.7014,247.903 88.5348,249.069 89,250.5C 89.2784,249.584 89.7784,248.918 90.5,248.5C 90.9438,253.059 92.7771,257.059 96,260.5C 96.21,258.942 96.71,257.609 97.5,256.5C 97.5,257.833 97.5,259.167 97.5,260.5C 99.3464,260.222 100.68,260.889 101.5,262.5C 99.0885,264.783 96.4218,266.783 93.5,268.5C 91.8577,267.197 90.1911,265.864 88.5,264.5C 87.5886,261.548 87.4219,258.548 88,255.5C 84.9031,252.911 82.4031,249.911 80.5,246.5C 82.4425,243.221 84.7758,240.221 87.5,237.5 Z"/></g><g><path style="opacity:.012" fill="#d9e1f1" d="M 35.5,242.5 C 34.8333,241.167 34.8333,241.167 35.5,242.5 Z"/></g><g><path style="opacity:.006" fill="#d8e1f0" d="M 415.5,244.5 C 415.167,244.5 414.833,244.5 414.5,244.5C 414.833,241.833 415.167,241.833 415.5,244.5 Z"/></g><g><path style="opacity:.012" fill="#d9e1f1" d="M 34.5,244.5 C 33.8333,243.167 33.8333,243.167 34.5,244.5 Z"/></g><g><path style="opacity:.012" fill="#d9e1f1" d="M 415.5,244.5 C 416.833,245.167 416.833,245.167 415.5,244.5 Z"/></g><g><path style="opacity:.012" fill="#d9e1f0" d="M 32.5,245.5 C 33.8333,246.167 33.8333,246.167 32.5,245.5 Z"/></g><g><path style="opacity:1" fill="#f4997b" d="M 129.5,242.5 C 130.384,245.023 131.218,247.69 132,250.5C 132.377,251.942 133.21,252.942 134.5,253.5C 135.5,255.167 136.833,256.5 138.5,257.5C 136.735,258.461 134.735,258.795 132.5,258.5C 130.91,258.372 129.577,257.705 128.5,256.5C 127.336,252.987 126.002,249.654 124.5,246.5C 125.919,245.549 127.585,245.216 129.5,245.5C 129.5,244.5 129.5,243.5 129.5,242.5 Z"/></g><g><path style="opacity:1" fill="#d8dded" d="M 91.5,243.5 C 90.962,245.117 90.6287,246.784 90.5,248.5C 89.7784,248.918 89.2784,249.584 89,250.5C 88.5348,249.069 87.7014,247.903 86.5,247C 88,245.5 89.5,244 91,242.5C 91.3988,242.728 91.5654,243.062 91.5,243.5 Z"/></g><g><path style="opacity:.012" fill="#dae0f1" d="M 418.5,250.5 C 418.167,250.5 417.833,250.5 417.5,250.5C 417.833,247.833 418.167,247.833 418.5,250.5 Z"/></g><g><path style="opacity:.012" fill="#dae0f2" d="M 31.5,251.5 C 30.475,251.103 30.3083,250.437 31,249.5C 31.4643,250.094 31.631,250.761 31.5,251.5 Z"/></g><g><path style="opacity:.008" fill="#d9e1f1" d="M 418.5,250.5 C 419.525,250.897 419.692,251.563 419,252.5C 418.536,251.906 418.369,251.239 418.5,250.5 Z"/></g><g><path style="opacity:1" fill="#1cb193" d="M 191.5,247.5 C 198.557,247.516 200.557,250.516 197.5,256.5C 196.681,259.305 196.181,262.305 196,265.5C 194.644,266.38 193.144,266.714 191.5,266.5C 191.61,263.941 190.944,261.608 189.5,259.5C 188.702,261.078 188.202,262.744 188,264.5C 184.331,266.009 182.831,264.676 183.5,260.5C 182.5,260.5 181.5,260.5 180.5,260.5C 181.008,263.176 181.175,265.843 181,268.5C 179.267,270.602 177.267,270.935 175,269.5C 174.178,266.883 173.678,264.216 173.5,261.5C 166.105,262.066 158.772,263.066 151.5,264.5C 148.572,262.919 146.239,263.585 144.5,266.5C 141.167,266.833 137.833,267.167 134.5,267.5C 132.833,267.5 131.167,267.5 129.5,267.5C 129.38,265.801 129.046,264.135 128.5,262.5C 129.437,260.712 130.77,259.379 132.5,258.5C 134.735,258.795 136.735,258.461 138.5,257.5C 156.434,254.896 174.101,251.563 191.5,247.5 Z"/></g><g><path style="opacity:.012" fill="#dae1f1" d="M 30.5,254.5 C 29.475,254.103 29.3083,253.437 30,252.5C 30.4643,253.094 30.631,253.761 30.5,254.5 Z"/></g><g><path style="opacity:.01" fill="#d9e1f1" d="M 419.5,253.5 C 420.525,253.897 420.692,254.563 420,255.5C 419.536,254.906 419.369,254.239 419.5,253.5 Z"/></g><g><path style="opacity:.012" fill="#d9e0f1" d="M 29.5,257.5 C 28.475,257.103 28.3083,256.437 29,255.5C 29.4643,256.094 29.631,256.761 29.5,257.5 Z"/></g><g><path style="opacity:.009" fill="#d9e1f1" d="M 420.5,259.5 C 420.351,258.448 420.517,257.448 421,256.5C 421.74,257.749 421.573,258.749 420.5,259.5 Z"/></g><g><path style="opacity:1" fill="#d9e0f0" d="M 330.5,197.5 C 325.167,197.833 325.167,198.167 330.5,198.5C 331.209,199.404 332.209,199.737 333.5,199.5C 334.899,200.89 336.566,201.89 338.5,202.5C 339.167,202.5 339.5,202.833 339.5,203.5C 340.5,205.167 341.833,206.5 343.5,207.5C 343.711,209.424 344.377,209.757 345.5,208.5C 346.833,208.5 348.167,208.5 349.5,208.5C 350.167,210.5 350.833,212.5 351.5,214.5C 350.432,215.434 349.099,215.768 347.5,215.5C 347.34,217.199 347.506,218.866 348,220.5C 348.535,218.729 349.369,218.396 350.5,219.5C 349.833,220.5 349.167,221.5 348.5,222.5C 349.213,224.776 349.713,227.109 350,229.5C 351.356,230.38 352.856,230.714 354.5,230.5C 354.5,231.5 354.5,232.5 354.5,233.5C 344.478,236.295 334.811,240.295 325.5,245.5C 319.757,241.962 313.757,238.962 307.5,236.5C 306.521,234.855 305.188,233.521 303.5,232.5C 302.289,233.274 302.289,234.107 303.5,235C 301.5,235.667 299.5,236.333 297.5,237C 299.669,239.203 302.335,240.036 305.5,239.5C 311.013,245.176 317.013,250.342 323.5,255C 329.462,254.85 335.129,253.35 340.5,250.5C 341.498,260.144 341.832,269.81 341.5,279.5C 340.945,292.827 340.611,306.16 340.5,319.5C 331.5,319.5 322.5,319.5 313.5,319.5C 315.125,316.551 314.292,314.551 311,313.5C 308.091,314.429 306.925,316.429 307.5,319.5C 247.167,319.5 186.833,319.5 126.5,319.5C 125.988,309.625 123.988,299.958 120.5,290.5C 128.631,285.472 131.964,278.139 130.5,268.5C 131.833,268.5 133.167,268.5 134.5,268.5C 134.333,283.837 134.5,299.17 135,314.5C 136.167,315.667 137.333,316.833 138.5,318C 187.002,318.832 235.335,318.665 283.5,317.5C 285.716,316.797 287.549,315.464 289,313.5C 289.5,276.502 289.667,239.502 289.5,202.5C 293.887,202.385 296.22,204.551 296.5,209C 299.833,209.667 303.167,209.667 306.5,209C 307.056,206.763 308.056,204.763 309.5,203C 312.5,203.333 315.5,203.667 318.5,204C 320.706,201.963 322.706,199.797 324.5,197.5C 325.222,197.082 325.722,196.416 326,195.5C 327.622,196.099 329.122,196.766 330.5,197.5 Z"/></g><g><path style="opacity:1" fill="#f5aa92" d="M 307.5,236.5 C 306.833,237.5 306.167,238.5 305.5,239.5C 302.335,240.036 299.669,239.203 297.5,237C 299.5,236.333 301.5,235.667 303.5,235C 302.289,234.107 302.289,233.274 303.5,232.5C 305.188,233.521 306.521,234.855 307.5,236.5 Z"/></g><g><path style="opacity:.01" fill="#d9e0f1" d="M 28.5,261.5 C 27.4265,260.749 27.2599,259.749 28,258.5C 28.4828,259.448 28.6495,260.448 28.5,261.5 Z"/></g><g><path style="opacity:.01" fill="#d9e0f1" d="M 422.5,264.5 C 422.167,264.5 421.833,264.5 421.5,264.5C 421.833,259.167 422.167,259.167 422.5,264.5 Z"/></g><g><path style="opacity:.012" fill="#d9e0f1" d="M 26.5,262.5 C 27.5983,263.601 27.765,264.934 27,266.5C 26.51,265.207 26.3433,263.873 26.5,262.5 Z"/></g><g><path style="opacity:1" fill="#d2deed" d="M 368.5,273.5 C 368.167,273.5 367.833,273.5 367.5,273.5C 368.551,266.297 370.384,259.297 373,252.5C 373.5,254 374,255.5 374.5,257C 372.011,262.299 370.011,267.799 368.5,273.5 Z"/></g><g><path style="opacity:.011" fill="#d9e0f1" d="M 422.5,264.5 C 423.634,266.966 423.801,269.633 423,272.5C 422.503,269.854 422.336,267.187 422.5,264.5 Z"/></g><g><path style="opacity:1" fill="#efa58f" d="M 151.5,264.5 C 151.5,265.5 151.5,266.5 151.5,267.5C 149.05,267.702 146.717,267.369 144.5,266.5C 146.239,263.585 148.572,262.919 151.5,264.5 Z"/></g><g><path style="opacity:.969" fill="#363a7a" d="M 88.5,264.5 C 90.1911,265.864 91.8577,267.197 93.5,268.5C 93.8333,272.167 95.8333,274.167 99.5,274.5C 99.5,276.167 99.5,277.833 99.5,279.5C 97.9475,292.793 96.6142,306.126 95.5,319.5C 95.6553,327.787 94.6553,335.787 92.5,343.5C 90.5,343.5 88.5,343.5 86.5,343.5C 86.797,336.442 86.4637,329.442 85.5,322.5C 69.844,321.667 54.1773,321.167 38.5,321C 54.6719,320.831 70.6719,320.331 86.5,319.5C 86.6411,305.322 86.3077,291.156 85.5,277C 85.6667,273.833 85.8333,270.667 86,267.5C 86.8518,266.429 87.6851,265.429 88.5,264.5 Z"/></g><g><path style="opacity:.011" fill="#d9e0f1" d="M 25.5,267.5 C 26.6378,270.304 26.8045,273.304 26,276.5C 25.502,273.518 25.3354,270.518 25.5,267.5 Z"/></g><g><path style="opacity:1" fill="#93a8d7" d="M 326.5,273.5 C 340.345,273.541 344.179,279.874 338,292.5C 333.171,302.019 327.505,302.685 321,294.5C 317.669,289.191 316.836,283.524 318.5,277.5C 320.836,275.395 323.503,274.062 326.5,273.5 Z"/></g><g><path style="opacity:1" fill="#f5a88f" d="M 367.5,273.5 C 367.833,273.5 368.167,273.5 368.5,273.5C 369.391,274.11 370.391,274.443 371.5,274.5C 368.815,281.489 367.481,281.155 367.5,273.5 Z"/></g><g><path style="opacity:1" fill="#47b8a4" d="M 124.5,246.5 C 126.002,249.654 127.336,252.987 128.5,256.5C 129.577,257.705 130.91,258.372 132.5,258.5C 130.77,259.379 129.437,260.712 128.5,262.5C 129.046,264.135 129.38,265.801 129.5,267.5C 131.167,267.5 132.833,267.5 134.5,267.5C 134.5,267.833 134.5,268.167 134.5,268.5C 133.167,268.5 131.833,268.5 130.5,268.5C 131.964,278.139 128.631,285.472 120.5,290.5C 115.638,290.882 110.972,290.216 106.5,288.5C 103.754,285.762 101.42,282.762 99.5,279.5C 99.5,277.833 99.5,276.167 99.5,274.5C 95.8333,274.167 93.8333,272.167 93.5,268.5C 96.4218,266.783 99.0885,264.783 101.5,262.5C 100.68,260.889 99.3464,260.222 97.5,260.5C 97.5,259.167 97.5,257.833 97.5,256.5C 98.851,250.98 102.184,247.147 107.5,245C 113.478,244.465 119.144,244.965 124.5,246.5 Z"/></g><g><path style="opacity:1" fill="#d6deef" d="M 113.5,269.5 C 116.728,270.414 120.061,270.747 123.5,270.5C 124.902,276.574 122.902,280.908 117.5,283.5C 116.37,278.776 115.036,274.109 113.5,269.5 Z"/></g><g><path style="opacity:1" fill="#303475" d="M 112.5,266.5 C 112.557,267.609 112.89,268.609 113.5,269.5C 115.036,274.109 116.37,278.776 117.5,283.5C 113.808,284.029 110.642,283.029 108,280.5C 106.594,276.969 105.76,273.302 105.5,269.5C 107.945,268.688 110.278,267.688 112.5,266.5 Z"/></g><g><path style="opacity:1" fill="#d5dbea" d="M 118.5,253.5 C 120.982,255.503 121.982,258.169 121.5,261.5C 119.435,261.517 117.435,261.85 115.5,262.5C 116.698,259.574 117.698,256.574 118.5,253.5 Z"/></g><g><path style="opacity:1" fill="#ef6466" d="M 118.5,253.5 C 117.698,256.574 116.698,259.574 115.5,262.5C 113.738,263.262 112.738,264.596 112.5,266.5C 110.278,267.688 107.945,268.688 105.5,269.5C 104.12,264.081 104.287,258.747 106,253.5C 110.274,250.85 114.441,250.85 118.5,253.5 Z"/></g><g><path style="opacity:1" fill="#6d79ae" d="M 421.5,279.5 C 422.506,279.938 422.506,280.604 421.5,281.5C 420.143,282.685 418.643,283.685 417,284.5C 411.16,281.756 411.16,278.756 417,275.5C 418.371,277.041 419.871,278.375 421.5,279.5 Z"/></g><g><path style="opacity:1" fill="#d8dff1" d="M 416.5,277.5 C 420.184,279.203 420.351,281.203 417,283.5C 413.898,281.663 413.731,279.663 416.5,277.5 Z"/></g><g><path style="opacity:.004" fill="#505f9c" d="M 423.5,279.5 C 424.833,280.167 424.833,280.167 423.5,279.5 Z"/></g><g><path style="opacity:.932" fill="#26295a" d="M 341.5,279.5 C 347.804,280.26 354.137,280.593 360.5,280.5C 360.785,285.26 358.619,288.26 354,289.5C 353.164,293.853 352.331,298.187 351.5,302.5C 350.588,308.131 349.921,313.798 349.5,319.5C 348.981,329.651 347.648,339.651 345.5,349.5C 344.432,350.434 343.099,350.768 341.5,350.5C 340.695,340.188 340.362,329.854 340.5,319.5C 340.611,306.16 340.945,292.827 341.5,279.5 Z"/></g><g><path style="opacity:.916" fill="#363a7a" d="M 360.5,280.5 C 361.833,280.5 363.167,280.5 364.5,280.5C 364.186,293.579 364.52,306.579 365.5,319.5C 378.99,320.496 392.656,320.829 406.5,320.5C 394.011,321.495 381.344,321.829 368.5,321.5C 368.331,334.817 367.831,334.817 367,321.5C 366.726,330.21 367.226,338.877 368.5,347.5C 366.833,347.5 365.167,347.5 363.5,347.5C 363.5,346.833 363.167,346.5 362.5,346.5C 360.344,337.54 358.344,328.54 356.5,319.5C 355.587,313.496 353.92,307.829 351.5,302.5C 352.331,298.187 353.164,293.853 354,289.5C 358.619,288.26 360.785,285.26 360.5,280.5 Z"/></g><g><path style="opacity:.008" fill="#d8dff0" d="M 422.5,281.5 C 423.622,283.288 423.789,285.288 423,287.5C 422.505,285.527 422.338,283.527 422.5,281.5 Z"/></g><g><path style="opacity:.009" fill="#d9e0f1" d="M 25.5,281.5 C 26.6408,284.64 26.8075,287.973 26,291.5C 25.5017,288.183 25.335,284.85 25.5,281.5 Z"/></g><g><path style="opacity:.92" fill="#2f3374" d="M 106.5,288.5 C 110.972,290.216 115.638,290.882 120.5,290.5C 123.988,299.958 125.988,309.625 126.5,319.5C 127.034,328.197 127.534,336.864 128,345.5C 127.79,343.942 127.29,342.609 126.5,341.5C 124.735,340.539 122.735,340.205 120.5,340.5C 118.42,333.762 117.087,326.762 116.5,319.5C 115.569,308.374 112.236,298.041 106.5,288.5 Z"/></g><g><path style="opacity:.008" fill="#d9e0f1" d="M 421.5,292.5 C 421.343,291.127 421.51,289.793 422,288.5C 422.765,290.066 422.598,291.399 421.5,292.5 Z"/></g><g><path style="opacity:.008" fill="#d9e0f1" d="M 420.5,292.5 C 420.833,292.5 421.167,292.5 421.5,292.5C 421.167,296.5 420.833,296.5 420.5,292.5 Z"/></g><g><path style="opacity:.01" fill="#dae1f1" d="M 419.5,296.5 C 420.525,296.897 420.692,297.563 420,298.5C 419.536,297.906 419.369,297.239 419.5,296.5 Z"/></g><g><path style="opacity:.009" fill="#d9e0f1" d="M 28.5,296.5 C 28.5,297.833 28.5,299.167 28.5,300.5C 27.1667,299.167 27.1667,297.833 28.5,296.5 Z"/></g><g><path style="opacity:.01" fill="#dae1f1" d="M 418.5,299.5 C 419.833,300.167 419.833,300.833 418.5,301.5C 418.5,300.833 418.5,300.167 418.5,299.5 Z"/></g><g><path style="opacity:.012" fill="#dae0f1" d="M 28.5,300.5 C 28.8333,300.5 29.1667,300.5 29.5,300.5C 29.1667,304.5 28.8333,304.5 28.5,300.5 Z"/></g><g><path style="opacity:.012" fill="#d9e0f2" d="M 417.5,301.5 C 417.833,301.5 418.167,301.5 418.5,301.5C 418.167,304.167 417.833,304.167 417.5,301.5 Z"/></g><g><path style="opacity:.01" fill="#d9e1f1" d="M 29.5,304.5 C 30.525,304.897 30.6917,305.563 30,306.5C 29.5357,305.906 29.369,305.239 29.5,304.5 Z"/></g><g><path style="opacity:.012" fill="#d9e0f1" d="M 416.5,304.5 C 417.833,305.167 417.833,305.167 416.5,304.5 Z"/></g><g><path style="opacity:.012" fill="#d9e1f1" d="M 415.5,306.5 C 416.833,307.167 416.833,307.167 415.5,306.5 Z"/></g><g><path style="opacity:.012" fill="#d9e1f1" d="M 414.5,308.5 C 415.833,309.167 415.833,309.167 414.5,308.5 Z"/></g><g><path style="opacity:.008" fill="#dae0f1" d="M 413.5,309.5 C 413.833,309.5 414.167,309.5 414.5,309.5C 414.672,310.492 414.338,311.158 413.5,311.5C 413.5,310.833 413.5,310.167 413.5,309.5 Z"/></g><g><path style="opacity:.016" fill="#d9e1f1" d="M 412.5,311.5 C 412.833,311.5 413.167,311.5 413.5,311.5C 413.315,312.17 412.981,312.17 412.5,311.5 Z"/></g><g><path style="opacity:.008" fill="#d9e0f1" d="M 33.5,311.5 C 33.631,312.239 33.4643,312.906 33,313.5C 32.3083,312.563 32.475,311.897 33.5,311.5 Z"/></g><g><path style="opacity:.012" fill="#d9e1f1" d="M 411.5,313.5 C 412.833,314.167 412.833,314.167 411.5,313.5 Z"/></g><g><path style="opacity:1" fill="#868fbd" d="M 313.5,319.5 C 311.958,320.301 310.292,320.634 308.5,320.5C 308.5,319.833 308.167,319.5 307.5,319.5C 306.925,316.429 308.091,314.429 311,313.5C 314.292,314.551 315.125,316.551 313.5,319.5 Z"/></g><g><path style="opacity:.016" fill="#d9e1f1" d="M 410.5,314.5 C 410.833,314.5 411.167,314.5 411.5,314.5C 411.315,315.17 410.981,315.17 410.5,314.5 Z"/></g><g><path style="opacity:.008" fill="#d9e0f1" d="M 35.5,315.5 C 35.5,316.167 35.5,316.833 35.5,317.5C 34.1667,316.833 34.1667,316.167 35.5,315.5 Z"/></g><g><path style="opacity:.008" fill="#d9e1f1" d="M 409.5,316.5 C 410.833,317.167 410.833,317.167 409.5,316.5 Z"/></g><g><path style="opacity:.012" fill="#d8e0f0" d="M 35.5,317.5 C 35.8333,317.5 36.1667,317.5 36.5,317.5C 36.3147,318.17 35.9813,318.17 35.5,317.5 Z"/></g><g><path style="opacity:.012" fill="#d9e1f1" d="M 408.5,317.5 C 408.833,317.5 409.167,317.5 409.5,317.5C 409.315,318.17 408.981,318.17 408.5,317.5 Z"/></g><g><path style="opacity:.227" fill="#d4dbed" d="M 99.5,279.5 C 101.42,282.762 103.754,285.762 106.5,288.5C 112.236,298.041 115.569,308.374 116.5,319.5C 109.5,319.5 102.5,319.5 95.5,319.5C 96.6142,306.126 97.9475,292.793 99.5,279.5 Z"/></g><g><path style="opacity:.229" fill="#c7cde3" d="M 351.5,302.5 C 353.92,307.829 355.587,313.496 356.5,319.5C 354.167,319.5 351.833,319.5 349.5,319.5C 349.921,313.798 350.588,308.131 351.5,302.5 Z"/></g><g><path style="opacity:.008" fill="#d8e1f0" d="M 407.5,318.5 C 407.833,318.5 408.167,318.5 408.5,318.5C 408.315,319.17 407.981,319.17 407.5,318.5 Z"/></g><g><path style="opacity:.004" fill="#d8e1f0" d="M 406.5,319.5 C 406.833,319.5 407.167,319.5 407.5,319.5C 407.315,320.17 406.981,320.17 406.5,319.5 Z"/></g><g><path style="opacity:.008" fill="#a0a3c7" d="M 96.5,320.5 C 102.833,320.5 109.167,320.5 115.5,320.5C 115.378,324.838 115.045,325.172 114.5,321.5C 108.833,321.5 103.167,321.5 97.5,321.5C 97.6633,323.857 97.4966,326.19 97,328.5C 96.5026,325.854 96.3359,323.187 96.5,320.5 Z"/></g><g><path style="opacity:.008" fill="#d1d8eb" d="M 308.5,320.5 C 248.669,321.499 188.669,321.832 128.5,321.5C 128.663,323.857 128.497,326.19 128,328.5C 127.503,325.854 127.336,323.187 127.5,320.5C 187.833,320.5 248.167,320.5 308.5,320.5 Z"/></g><g><path style="opacity:.01" fill="#65668f" d="M 313.5,321.5 C 321.984,320.507 330.651,320.174 339.5,320.5C 339.666,326.842 339.5,333.175 339,339.5C 338.501,333.509 338.334,327.509 338.5,321.5C 330.167,321.5 321.833,321.5 313.5,321.5 Z"/></g><g><path style="opacity:.009" fill="#4f4f7d" d="M 350.5,320.5 C 352.167,320.5 353.833,320.5 355.5,320.5C 355.649,321.552 355.483,322.552 355,323.5C 354.29,322.027 353.124,321.36 351.5,321.5C 351.662,323.527 351.495,325.527 351,327.5C 350.503,325.19 350.337,322.857 350.5,320.5 Z"/></g><g><path style="opacity:.009" fill="#293072" d="M 368.5,333.5 C 369.641,336.64 369.808,339.973 369,343.5C 368.502,340.183 368.335,336.85 368.5,333.5 Z"/></g><g><path style="opacity:.008" fill="#a56870" d="M 85.5,349.5 C 85.1667,349.5 84.8333,349.5 84.5,349.5C 84.8333,318.833 85.1667,318.833 85.5,349.5 Z"/></g><g><path style="opacity:1" fill="#f79974" d="M 86.5,343.5 C 88.5,343.5 90.5,343.5 92.5,343.5C 93.8333,344.833 93.8333,346.167 92.5,347.5C 90.7354,348.461 88.7354,348.795 86.5,348.5C 86.5,346.833 86.5,345.167 86.5,343.5 Z"/></g><g><path style="opacity:.995" fill="#e09038" d="M 120.5,340.5 C 122.735,340.205 124.735,340.539 126.5,341.5C 126.215,343.288 126.548,344.955 127.5,346.5C 129.875,348.265 132.542,349.432 135.5,350C 136.357,350.689 137.023,351.522 137.5,352.5C 131.537,353.496 125.537,353.829 119.5,353.5C 119.586,349.143 119.92,344.81 120.5,340.5 Z"/></g><g><path style="opacity:.982" fill="#e89279" d="M 363.5,347.5 C 365.167,347.5 366.833,347.5 368.5,347.5C 368.5,348.167 368.5,348.833 368.5,349.5C 366.833,349.5 365.167,349.5 363.5,349.5C 363.5,348.833 363.5,348.167 363.5,347.5 Z"/></g><g><path style="opacity:.014" fill="#604574" d="M 340.5,350.5 C 338.801,350.66 337.134,350.494 335.5,350C 337.402,349.801 338.902,348.967 340,347.5C 340.483,348.448 340.649,349.448 340.5,350.5 Z"/></g><g><path style="opacity:.01" fill="#574174" d="M 362.5,346.5 C 362.5,347.833 362.5,349.167 362.5,350.5C 356.833,350.336 356.5,350.003 361.5,349.5C 361.263,348.209 361.596,347.209 362.5,346.5 Z"/></g><g><path style="opacity:.997" fill="#d98f2c" d="M 92.5,347.5 C 94.5323,348.048 95.5323,349.381 95.5,351.5C 98.8306,351.018 101.497,352.018 103.5,354.5C 97.5,355.833 91.5,355.833 85.5,354.5C 85.5,352.833 85.5,351.167 85.5,349.5C 86.1667,349.5 86.5,349.167 86.5,348.5C 88.7354,348.795 90.7354,348.461 92.5,347.5 Z"/></g><g><path style="opacity:.641" fill="#2a2f73" d="M 345.5,349.5 C 346.451,350.919 346.784,352.585 346.5,354.5C 350.167,354.5 353.833,354.5 357.5,354.5C 357.5,353.5 357.5,352.5 357.5,351.5C 360.082,351.975 362.082,351.308 363.5,349.5C 365.167,349.5 366.833,349.5 368.5,349.5C 368.5,351.167 368.5,352.833 368.5,354.5C 383.182,354.167 397.848,354.501 412.5,355.5C 410.667,355.833 408.833,356.167 407,356.5C 281.977,356.82 156.811,356.487 31.5,355.5C 49.4877,354.5 67.4877,354.167 85.5,354.5C 91.5,355.833 97.5,355.833 103.5,354.5C 180.503,354.833 257.503,354.5 334.5,353.5C 336.282,352.016 338.282,351.016 340.5,350.5C 340.833,350.5 341.167,350.5 341.5,350.5C 343.099,350.768 344.432,350.434 345.5,349.5 Z"/></g><g><path style="opacity:.016" fill="#5d4475" d="M 369.5,345.5 C 370.634,347.966 370.801,350.633 370,353.5C 369.503,350.854 369.336,348.187 369.5,345.5 Z"/></g><g><path style="opacity:.008" fill="#db9129" d="M 84.5,349.5 C 84.6567,350.873 84.49,352.207 84,353.5C 83.235,351.934 83.4017,350.601 84.5,349.5 Z"/></g><g><path style="opacity:.485" fill="#2a2f74" d="M 11.5,354.5 C 13.288,354.215 14.9547,354.548 16.5,355.5C 15.6667,355.833 14.8333,356.167 14,356.5C 12.6244,356.316 11.7911,355.649 11.5,354.5 Z"/></g><g><path style="opacity:.566" fill="#2a2f73" d="M 17.5,354.5 C 21.5546,354.176 25.5546,354.509 29.5,355.5C 27.5,355.833 25.5,356.167 23.5,356.5C 21.0478,356.461 19.0478,355.794 17.5,354.5 Z"/></g><g><path style="opacity:.499" fill="#2a2f73" d="M 418.5,356.5 C 416.712,356.785 415.045,356.452 413.5,355.5C 414.333,355.167 415.167,354.833 416,354.5C 417.376,354.684 418.209,355.351 418.5,356.5 Z"/></g><g><path style="opacity:.008" fill="#2b2f73" d="M 419.5,356.5 C 419.369,355.761 419.536,355.094 420,354.5C 420.692,355.437 420.525,356.103 419.5,356.5 Z"/></g><g><path style="opacity:.004" fill="#2a2f73" d="M 418.5,356.5 C 418.833,356.5 419.167,356.5 419.5,356.5C 419.315,357.17 418.981,357.17 418.5,356.5 Z"/></g><g><path style="opacity:.014" fill="#2a2f73" d="M 12.5,358.5 C 13.6009,357.402 14.9343,357.235 16.5,358C 15.2068,358.49 13.8734,358.657 12.5,358.5 Z"/></g><g><path style="opacity:.011" fill="#2a2f73" d="M 18.5,358.5 C 21.9758,357.357 25.6425,357.19 29.5,358C 25.8484,358.499 22.1817,358.665 18.5,358.5 Z"/></g><g><path style="opacity:.012" fill="#2b2f73" d="M 31.5,358.5 C 153.999,357.334 276.666,357.167 399.5,358C 276.834,358.5 154.167,358.667 31.5,358.5 Z"/></g><g><path style="opacity:.012" fill="#2a2f73" d="M 401.5,358.5 C 404.976,357.357 408.642,357.19 412.5,358C 408.848,358.499 405.182,358.665 401.5,358.5 Z"/></g><g><path style="opacity:.01" fill="#2a2f73" d="M 418.5,357.5 C 417.054,358.613 415.387,358.78 413.5,358C 415.134,357.506 416.801,357.34 418.5,357.5 Z"/></g></svg>